    <svg width="340" height="340" viewBox="0 0 340 340" fill="none" xmlns="http://www.w3.org/2000/svg">
    <path d="M170 58.872C148.021 58.8718 126.535 65.3893 108.26 77.6002C89.9844 89.8111 75.7406 107.167 67.3294 127.473C58.9182 147.78 56.7174 170.124 61.0053 191.681C65.2932 213.238 75.8772 233.039 91.4189 248.581C106.961 264.123 126.762 274.707 148.319 278.995C169.876 283.283 192.22 281.082 212.527 272.671C232.833 264.259 250.189 250.016 262.4 231.74C274.611 213.465 281.128 191.979 281.128 170C281.095 140.537 269.376 112.291 248.543 91.4575C227.709 70.6242 199.463 58.9054 170 58.872V58.872ZM170 274.205C149.392 274.204 129.246 268.092 112.111 256.642C94.9766 245.192 81.6218 228.918 73.7358 209.878C65.8498 190.838 63.7867 169.888 67.8074 149.675C71.8282 129.463 81.7521 110.897 96.3245 96.3245C110.897 81.7521 129.463 71.8282 149.675 67.8074C169.888 63.7867 190.838 65.8498 209.878 73.7358C228.918 81.6218 245.192 94.9766 256.642 112.111C268.092 129.246 274.204 149.392 274.205 170C274.174 197.627 263.185 224.114 243.65 243.65C224.114 263.185 197.627 274.174 170 274.205Z" fill="black"/>
    <path d="M124.918 141.27L124.29 142.07C122.317 144.595 121.317 147.746 121.473 150.947C121.781 159.708 123.275 168.387 125.915 176.747C126.057 177.193 126.287 177.607 126.591 177.963C126.896 178.319 127.268 178.61 127.687 178.82C128.105 179.03 128.562 179.154 129.029 179.185C129.497 179.216 129.965 179.153 130.408 179L137.632 176.382C139.578 175.672 141.331 174.518 142.752 173.01C144.173 171.503 145.222 169.684 145.816 167.7L146.471 165.5L150.605 170.712C151.05 171.273 151.659 171.682 152.347 171.883C153.034 172.084 153.768 172.066 154.445 171.833L158.86 170.311C161.268 169.482 163.408 168.018 165.052 166.073C166.697 164.128 167.785 161.775 168.202 159.262L169.673 150.439L170.805 143.646C170.992 142.518 171.423 141.444 172.068 140.5C172.713 139.556 173.557 138.764 174.54 138.18C174.932 137.948 175.275 137.642 175.549 137.277C175.822 136.913 176.021 136.498 176.134 136.056C176.247 135.615 176.272 135.156 176.207 134.705C176.141 134.254 175.988 133.82 175.755 133.428C175.522 133.037 175.214 132.695 174.849 132.423C174.483 132.15 174.068 131.953 173.626 131.842C173.184 131.73 172.724 131.707 172.274 131.774C171.823 131.841 171.39 131.996 170.999 132.23C169.15 133.328 167.564 134.817 166.351 136.593C165.138 138.368 164.327 140.388 163.976 142.509L162.844 149.302L161.374 158.126C161.16 159.409 160.604 160.61 159.765 161.603C158.925 162.596 157.832 163.343 156.603 163.767L154.503 164.49L147.757 155.984C147.363 155.488 146.841 155.109 146.247 154.889C145.653 154.669 145.01 154.616 144.388 154.736C143.766 154.857 143.188 155.145 142.719 155.571C142.25 155.996 141.906 156.543 141.726 157.15L139.177 165.735C138.893 166.682 138.392 167.55 137.714 168.269C137.036 168.989 136.199 169.54 135.27 169.879L131.549 171.228C129.808 164.481 128.748 157.576 128.385 150.618C128.309 149.076 128.791 147.559 129.741 146.343L130.37 145.538C131.82 143.686 132.571 141.383 132.493 139.033C132.415 136.682 131.512 134.434 129.942 132.683C128.891 131.53 128.307 130.026 128.304 128.466C128.535 92.398 155.81 85.566 156.96 85.291C157.005 85.28 157.051 85.27 157.096 85.257C160.923 84.201 164.826 83.4457 168.771 82.998C174.844 82.3276 180.989 83.2064 186.631 85.5526C192.273 87.8988 197.229 91.6358 201.036 96.415C204.746 100.94 207.229 106.342 208.248 112.104C209.267 117.866 208.788 123.792 206.855 129.315C206.25 131.102 205.491 132.833 204.586 134.489C202.954 137.435 200.513 139.851 197.551 141.454C194.589 143.056 191.231 143.777 187.872 143.532C185.376 143.352 182.871 143.329 180.372 143.462C179.455 143.512 178.596 143.924 177.982 144.607C177.369 145.291 177.053 146.19 177.102 147.106C177.152 148.023 177.564 148.883 178.248 149.496C178.931 150.109 179.83 150.426 180.747 150.376C182.955 150.256 185.169 150.277 187.374 150.438C192.053 150.772 196.73 149.763 200.854 147.528C204.978 145.293 208.378 141.927 210.653 137.825C211.751 135.818 212.673 133.719 213.409 131.553C215.677 124.924 216.228 117.828 215.01 110.928C213.792 104.028 210.845 97.5491 206.444 92.097C201.913 86.4043 196.013 81.953 189.296 79.1589C182.578 76.3649 175.261 75.3194 168.03 76.12C163.724 76.6061 159.463 77.4286 155.285 78.58C152.942 79.187 121.64 88.093 121.385 128.426C121.376 131.705 122.588 134.87 124.785 137.304C125.267 137.845 125.545 138.538 125.569 139.263C125.594 139.988 125.363 140.698 124.918 141.27V141.27Z" fill="black"/>
    <path d="M215.576 221.557C213.117 222.195 210.793 223.271 208.715 224.732C207.871 225.319 206.877 225.653 205.85 225.696C204.823 225.739 203.805 225.488 202.915 224.973C199.855 223.24 196.842 221.582 193.875 220C198.138 217.358 202.043 215.073 205.508 213.2C206.38 212.75 207.348 212.521 208.329 212.532C209.31 212.543 210.273 212.795 211.134 213.265C212.975 214.236 214.992 214.83 217.066 215.011C223.766 215.551 227.833 210.657 228.4 205.532C228.741 203.122 228.234 200.669 226.966 198.591C225.698 196.514 223.747 194.941 221.448 194.143C221.509 190.143 220.518 183.731 214.295 179.99C212.423 178.857 210.249 178.322 208.065 178.456C205.881 178.59 203.789 179.387 202.069 180.74C200.408 182.087 199.056 183.775 198.105 185.69C197.154 187.605 196.625 189.703 196.556 191.84C196.5 192.596 196.261 193.327 195.86 193.97C195.458 194.614 194.906 195.149 194.251 195.531C189.478 198.376 181.913 203.068 172.674 209.42C161.984 204.438 153.494 200.993 149.019 199.251C148.311 198.983 147.679 198.548 147.177 197.981C146.676 197.415 146.319 196.735 146.139 196C145.717 193.903 144.849 191.921 143.594 190.188C142.339 188.456 140.725 187.014 138.863 185.961C136.943 184.912 134.748 184.473 132.572 184.702C130.396 184.932 128.341 185.819 126.682 187.246C121.164 191.965 121.249 198.455 121.971 202.387C119.836 203.555 118.174 205.428 117.267 207.686C116.36 209.944 116.266 212.446 117 214.766C118.408 219.727 123.236 223.882 129.747 222.237C131.762 221.716 133.653 220.798 135.309 219.537C136.08 218.932 136.988 218.525 137.953 218.351C138.918 218.178 139.911 218.243 140.845 218.542C144.852 219.914 149.152 221.563 153.537 223.358C150.762 225.498 148.022 227.658 145.36 229.823C144.568 230.478 143.607 230.894 142.587 231.022C141.568 231.15 140.533 230.985 139.604 230.546C137.313 229.448 134.843 228.77 132.312 228.546C130.218 228.371 128.114 228.733 126.198 229.597C124.283 230.461 122.619 231.799 121.364 233.485C120.16 235.068 119.38 236.933 119.097 238.902C118.815 240.87 119.039 242.879 119.749 244.737C120.776 247.416 123.122 250.686 128.468 251.992C129.431 254.357 131.083 256.377 133.211 257.789C135.338 259.201 137.842 259.94 140.395 259.908H140.56C143.462 259.91 146.279 258.928 148.55 257.123C150.822 255.318 152.415 252.795 153.068 249.968L153.129 249.704C153.429 248.455 154.167 247.355 155.209 246.604C157.537 244.874 161.28 242.117 165.9 238.817C166.64 238.28 167.137 237.473 167.284 236.571C167.431 235.669 167.215 234.745 166.684 234.002C166.152 233.258 165.348 232.755 164.447 232.602C163.546 232.449 162.621 232.658 161.874 233.184C157.211 236.516 153.429 239.3 151.074 241.048C148.7 242.79 147.03 245.327 146.368 248.196L146.329 248.366C146.04 249.695 145.298 250.883 144.23 251.726C143.162 252.568 141.834 253.013 140.474 252.985H140.4C139.075 253.028 137.776 252.613 136.721 251.81C135.666 251.007 134.921 249.865 134.61 248.576C134.577 248.451 134.557 248.365 134.556 248.362C134.427 247.631 134.067 246.96 133.528 246.449C132.989 245.938 132.3 245.614 131.563 245.525C127.712 245.059 126.663 243.437 126.214 242.259C125.92 241.494 125.83 240.667 125.951 239.857C126.072 239.047 126.4 238.282 126.904 237.636C127.457 236.888 128.193 236.294 129.041 235.911C129.888 235.528 130.82 235.368 131.747 235.447C133.453 235.602 135.116 236.063 136.659 236.807C138.77 237.788 141.114 238.156 143.424 237.871C145.734 237.585 147.918 236.657 149.727 235.192C153.334 232.26 157.085 229.326 160.882 226.456C175.128 232.646 189.104 239.636 195.982 243.156C197.134 243.726 198.043 244.689 198.546 245.871L198.658 246.139C199.63 248.481 201.278 250.481 203.39 251.884C205.503 253.286 207.985 254.029 210.521 254.016C211.227 254.015 211.932 253.96 212.63 253.851C215.186 253.487 217.571 252.354 219.467 250.602C221.364 248.85 222.682 246.562 223.246 244.043C228.303 241.869 230.073 238.255 230.646 235.443C231.038 233.493 230.927 231.474 230.322 229.579C229.718 227.684 228.639 225.974 227.19 224.611C225.674 223.156 223.811 222.112 221.779 221.578C219.747 221.043 217.612 221.036 215.576 221.557V221.557ZM197.8 201.479C199.421 200.521 200.785 199.183 201.773 197.58C202.761 195.977 203.343 194.158 203.47 192.279C203.487 191.105 203.757 189.948 204.263 188.888C204.768 187.828 205.498 186.89 206.4 186.138C207.015 185.666 207.758 185.392 208.532 185.352C209.306 185.313 210.074 185.51 210.733 185.917C215.772 188.946 214.388 195.917 214.333 196.2C214.228 196.681 214.226 197.178 214.328 197.659C214.431 198.14 214.634 198.594 214.926 198.991C215.217 199.387 215.59 199.717 216.019 199.957C216.448 200.198 216.923 200.345 217.413 200.388C217.736 200.417 218.049 200.452 218.351 200.495C218.847 200.55 219.327 200.706 219.76 200.954C220.193 201.202 220.57 201.537 220.868 201.938C221.165 202.338 221.377 202.796 221.491 203.282C221.604 203.768 221.615 204.272 221.525 204.763C221.506 205.244 221.388 205.715 221.179 206.148C220.97 206.582 220.674 206.967 220.309 207.28C219.944 207.594 219.518 207.829 219.059 207.971C218.599 208.112 218.115 208.158 217.637 208.104C216.478 207.996 215.352 207.659 214.325 207.111C212.461 206.121 210.383 205.603 208.272 205.601C206.162 205.6 204.083 206.116 202.218 207.104C197.709 209.545 192.51 212.634 186.768 216.286C184.425 215.092 182.141 213.952 179.914 212.867C187.491 207.762 193.7 203.924 197.8 201.479ZM223.861 234.07C223.611 235.309 222.847 237.081 219.126 238.179C218.422 238.394 217.803 238.826 217.358 239.412C216.913 239.998 216.663 240.71 216.644 241.446C216.644 241.482 216.644 241.566 216.626 241.697C216.53 243.031 215.973 244.291 215.051 245.26C214.129 246.23 212.898 246.848 211.57 247.01C210.233 247.263 208.85 247.044 207.657 246.39C206.464 245.736 205.535 244.687 205.03 243.424L204.962 243.259C203.834 240.54 201.768 238.317 199.139 236.993C188.806 231.707 162.66 218.687 143.088 211.987C141.79 211.544 140.427 211.318 139.055 211.319C136.199 211.333 133.424 212.274 131.149 214C130.228 214.711 129.174 215.23 128.049 215.527C127.587 215.659 127.102 215.694 126.625 215.631C126.149 215.567 125.69 215.406 125.279 215.158C124.867 214.909 124.511 214.578 124.233 214.186C123.955 213.794 123.76 213.349 123.662 212.878C123.492 212.409 123.42 211.909 123.451 211.411C123.482 210.912 123.615 210.426 123.843 209.981C124.07 209.537 124.387 209.144 124.773 208.827C125.159 208.511 125.607 208.277 126.087 208.141C126.376 208.051 126.676 207.965 126.987 207.884C127.461 207.759 127.903 207.536 128.285 207.228C128.667 206.921 128.979 206.536 129.201 206.099C129.424 205.663 129.551 205.184 129.575 204.694C129.6 204.205 129.52 203.716 129.342 203.259C129.232 202.978 126.714 196.327 131.182 192.506C131.764 191.994 132.489 191.672 133.259 191.582C134.029 191.493 134.808 191.641 135.492 192.006C136.506 192.598 137.38 193.403 138.054 194.364C138.728 195.326 139.187 196.422 139.398 197.577C139.834 199.408 140.71 201.105 141.95 202.521C143.189 203.938 144.755 205.031 146.512 205.706C164.738 212.904 182.444 221.354 199.503 230.996C201.53 232.141 203.837 232.694 206.162 232.594C208.488 232.493 210.738 231.741 212.658 230.425C214.056 229.436 215.62 228.706 217.276 228.27C218.177 228.041 219.122 228.046 220.021 228.283C220.921 228.521 221.744 228.984 222.415 229.628C223.019 230.181 223.469 230.88 223.722 231.659C223.976 232.437 224.023 233.268 223.861 234.07V234.07Z" fill="black"/>
    <path d="M184.749 132.7C187.692 132.222 189.239 130.158 188.266 127.764C188.077 127.348 187.806 126.974 187.469 126.666C187.133 126.357 186.737 126.119 186.306 125.966C185.876 125.814 185.419 125.749 184.963 125.777C184.507 125.805 184.061 125.925 183.652 126.129L182.952 126.465C182.542 126.661 182.174 126.935 181.87 127.273C181.565 127.611 181.331 128.005 181.179 128.433C181.027 128.862 180.961 129.316 180.985 129.77C181.008 130.224 181.121 130.669 181.317 131.079C181.631 131.69 182.137 132.179 182.758 132.473C183.378 132.766 184.078 132.846 184.749 132.7V132.7Z" fill="black"/>
    <path d="M139.247 138.148C139.367 138.969 139.779 139.72 140.407 140.263C141.035 140.806 141.837 141.106 142.667 141.107C142.837 141.107 143.007 141.095 143.176 141.07C164.882 137.879 167.931 122.112 168.136 120.881C168.507 119.334 168.739 117.757 168.83 116.169C168.966 113.77 168.562 111.371 167.649 109.149C166.737 106.926 165.338 104.936 163.555 103.325C161.502 101.43 158.88 100.268 156.098 100.02C153.316 99.7718 150.53 100.451 148.174 101.953C145.384 103.718 143.122 106.202 141.624 109.144C141.253 109.912 139.382 114.195 139.213 122.772C139.138 124.694 139.563 126.603 140.449 128.311C141.334 130.018 142.648 131.467 144.262 132.513C144.782 132.868 145.326 133.186 145.889 133.467C144.663 133.785 143.421 134.036 142.168 134.22C141.26 134.354 140.442 134.843 139.894 135.579C139.346 136.316 139.114 137.24 139.247 138.148V138.148ZM147.839 112.194C147.865 112.141 147.891 112.088 147.915 112.035C148.871 110.296 150.253 108.828 151.931 107.769C153.001 107.097 154.263 106.798 155.521 106.918C156.779 107.039 157.962 107.572 158.885 108.435C159.906 109.353 160.708 110.488 161.233 111.756C161.758 113.025 161.992 114.395 161.918 115.766C161.662 120.166 160.249 123.566 157.718 125.857C156.459 127.052 154.838 127.794 153.111 127.965C151.383 128.137 149.648 127.728 148.179 126.804C147.514 126.403 146.972 125.828 146.611 125.14C146.251 124.452 146.086 123.679 146.135 122.904C146.279 115.568 147.84 112.194 147.839 112.194V112.194Z" fill="black"/>
    <path d="M107.4 178.434L82.978 163.305C82.1977 162.831 81.2617 162.684 80.3737 162.897C79.4857 163.109 78.7177 163.664 78.2369 164.44C77.7561 165.217 77.6014 166.151 77.8065 167.041C78.0116 167.931 78.5599 168.704 79.332 169.191L88 174.558L81.022 182.379C80.4274 183.067 80.127 183.96 80.1857 184.867C80.2444 185.774 80.6574 186.622 81.3357 187.227C82.0139 187.832 82.903 188.146 83.8108 188.102C84.7187 188.057 85.5725 187.657 86.188 186.988L93.975 178.26L103.757 184.32C104.144 184.564 104.575 184.729 105.025 184.806C105.476 184.882 105.937 184.869 106.383 184.766C106.828 184.663 107.249 184.473 107.62 184.207C107.992 183.941 108.307 183.604 108.548 183.216C108.789 182.827 108.95 182.395 109.023 181.943C109.096 181.492 109.078 181.031 108.972 180.586C108.865 180.142 108.672 179.723 108.403 179.353C108.133 178.984 107.794 178.671 107.403 178.434H107.4Z" fill="black"/>
    <path d="M100.765 168.908C101.253 168.909 101.736 168.806 102.182 168.606C102.627 168.407 103.025 168.115 103.35 167.75L105.171 165.709C105.477 165.37 105.713 164.974 105.866 164.544C106.019 164.114 106.085 163.658 106.06 163.202C106.036 162.746 105.922 162.299 105.724 161.888C105.526 161.476 105.249 161.108 104.908 160.804C104.568 160.5 104.17 160.266 103.739 160.116C103.308 159.967 102.851 159.904 102.395 159.931C101.94 159.959 101.494 160.076 101.083 160.276C100.673 160.477 100.307 160.756 100.005 161.099L98.183 163.141C97.7388 163.639 97.4481 164.256 97.346 164.916C97.244 165.575 97.3348 166.251 97.6077 166.86C97.8805 167.469 98.3237 167.987 98.8839 168.35C99.444 168.714 100.097 168.907 100.765 168.908Z" fill="black"/>
    <path d="M232.1 141.879C231.64 141.871 231.184 141.955 230.757 142.125C230.33 142.296 229.942 142.55 229.614 142.872C229.286 143.194 229.026 143.578 228.848 144.002C228.671 144.426 228.579 144.881 228.579 145.34C228.579 145.8 228.671 146.255 228.848 146.679C229.026 147.103 229.286 147.487 229.614 147.809C229.942 148.131 230.33 148.385 230.757 148.556C231.184 148.726 231.64 148.81 232.1 148.802H234.272C235.031 148.803 235.759 149.105 236.296 149.642C236.833 150.179 237.135 150.907 237.136 151.666V174.928H232.86C232.4 174.92 231.944 175.004 231.517 175.174C231.09 175.345 230.702 175.599 230.374 175.921C230.046 176.243 229.786 176.627 229.608 177.051C229.431 177.475 229.339 177.93 229.339 178.389C229.339 178.849 229.431 179.304 229.608 179.728C229.786 180.152 230.046 180.536 230.374 180.858C230.702 181.18 231.09 181.434 231.517 181.605C231.944 181.775 232.4 181.859 232.86 181.851H259.081C259.541 181.859 259.997 181.775 260.424 181.605C260.851 181.434 261.239 181.18 261.567 180.858C261.895 180.536 262.155 180.152 262.333 179.728C262.51 179.304 262.602 178.849 262.602 178.389C262.602 177.93 262.51 177.475 262.333 177.051C262.155 176.627 261.895 176.243 261.567 175.921C261.239 175.599 260.851 175.345 260.424 175.174C259.997 175.004 259.541 174.92 259.081 174.928H258.19C257.431 174.927 256.703 174.625 256.166 174.088C255.629 173.551 255.327 172.823 255.326 172.064V148.8H259.081C259.541 148.808 259.997 148.724 260.424 148.554C260.851 148.383 261.239 148.129 261.567 147.807C261.895 147.485 262.155 147.101 262.333 146.677C262.51 146.253 262.602 145.798 262.602 145.338C262.602 144.879 262.51 144.424 262.333 144C262.155 143.576 261.895 143.192 261.567 142.87C261.239 142.548 260.851 142.294 260.424 142.123C259.997 141.953 259.541 141.869 259.081 141.877L232.1 141.879ZM248.832 174.928H244.06V151.666C244.06 150.695 243.915 149.73 243.63 148.802H248.4V172.064C248.401 173.035 248.547 174 248.833 174.928H248.832Z" fill="black"/>
    <path d="M170 8.12097C132.907 8.14824 96.9427 20.8849 68.1 44.209C67.3904 44.7884 66.9395 45.6255 66.8459 46.5368C66.7523 47.4481 67.0238 48.3594 67.6008 49.071C68.1778 49.7825 69.0133 50.2364 69.9243 50.3331C70.8353 50.4298 71.7474 50.1615 72.461 49.587C99.1472 28.0091 132.229 15.8774 166.538 15.087V42.959C153.365 43.3058 140.328 45.7109 127.898 50.087L122.91 37.026C122.572 36.1834 121.916 35.5076 121.084 35.144C120.252 34.7805 119.31 34.7584 118.462 35.0825C117.614 35.4065 116.927 36.0509 116.549 36.8766C116.171 37.7024 116.133 38.6434 116.443 39.497L121.434 52.564C107.081 58.529 93.9397 67.0696 82.66 77.764L60.43 55.534C60.1085 55.2119 59.7266 54.9564 59.3062 54.782C58.8858 54.6077 58.4351 54.518 57.98 54.518C57.5249 54.518 57.0742 54.6077 56.6539 54.782C56.2335 54.9564 55.8516 55.2119 55.53 55.534C40.4518 70.5312 28.4978 88.3702 20.3601 108.018C12.2223 127.666 8.06237 148.733 8.121 170C8.121 216.29 26.573 253.38 54.54 283.7C74.114 304.921 116.558 331.88 170 331.88C207.992 331.868 244.771 318.507 273.912 294.132C274.269 293.843 274.564 293.485 274.781 293.08C274.999 292.676 275.133 292.232 275.177 291.775C275.221 291.317 275.174 290.856 275.038 290.417C274.901 289.979 274.679 289.572 274.384 289.22C274.089 288.867 273.727 288.578 273.319 288.367C272.911 288.156 272.465 288.029 272.007 287.992C271.549 287.956 271.089 288.011 270.652 288.154C270.216 288.297 269.812 288.525 269.465 288.826C242.483 311.394 208.632 324.121 173.465 324.917V297.042C186.638 296.695 199.675 294.29 212.104 289.914L217.093 302.974C217.25 303.406 217.491 303.803 217.802 304.14C218.114 304.478 218.49 304.751 218.908 304.942C219.326 305.133 219.777 305.239 220.237 305.254C220.696 305.268 221.154 305.191 221.583 305.027C222.012 304.863 222.405 304.615 222.737 304.298C223.07 303.981 223.336 303.601 223.52 303.18C223.704 302.758 223.802 302.305 223.809 301.845C223.816 301.386 223.731 300.929 223.56 300.503L218.57 287.437C232.923 281.472 246.064 272.931 257.344 262.237L279.573 284.467C279.894 284.788 280.276 285.043 280.696 285.217C281.116 285.391 281.566 285.481 282.021 285.481C282.475 285.481 282.925 285.391 283.345 285.217C283.765 285.043 284.147 284.788 284.468 284.467C299.857 269.172 311.99 250.92 320.133 230.809C328.277 210.699 332.264 189.147 331.853 167.454C331.442 145.761 326.642 124.376 317.742 104.589C308.842 84.8009 296.028 67.0207 280.07 52.32C254.189 28.556 215.349 8.12097 170 8.12097ZM281.988 277.093L262.236 257.341C271.298 247.783 278.827 236.879 284.554 225.018L297.324 230.729C297.74 230.923 298.191 231.033 298.65 231.052C299.109 231.07 299.567 230.997 299.998 230.836C300.428 230.676 300.823 230.432 301.158 230.117C301.493 229.803 301.762 229.425 301.95 229.006C302.137 228.586 302.239 228.134 302.25 227.674C302.261 227.215 302.18 226.758 302.013 226.33C301.845 225.902 301.594 225.512 301.275 225.182C300.955 224.852 300.572 224.59 300.15 224.409L287.383 218.699C293.361 204.343 296.635 189.007 297.042 173.462H324.914C324.16 212.177 308.831 249.184 281.988 277.093ZM297.02 166.538C296.702 153.362 294.327 140.316 289.982 127.873L302.974 122.91C303.828 122.58 304.516 121.924 304.888 121.088C305.26 120.251 305.285 119.301 304.958 118.446C304.632 117.591 303.979 116.9 303.144 116.524C302.309 116.148 301.36 116.119 300.503 116.442L287.491 121.413C282.996 110.58 277.022 100.421 269.74 91.227C269.458 90.8704 269.109 90.5729 268.712 90.3514C268.315 90.1299 267.878 89.9888 267.427 89.936C266.975 89.8833 266.518 89.92 266.08 90.044C265.643 90.1681 265.235 90.377 264.878 90.659C264.521 90.9409 264.224 91.2903 264.002 91.6873C263.781 92.0842 263.64 92.5209 263.587 92.9723C263.534 93.4238 263.571 93.8813 263.695 94.3186C263.819 94.7558 264.028 95.1644 264.31 95.521C271.754 104.908 277.748 115.357 282.095 126.521C282.162 126.915 282.302 127.293 282.508 127.635C290.816 149.791 292.404 173.906 287.075 196.96C281.746 220.015 269.736 240.986 252.548 257.249C235.36 273.512 213.757 284.345 190.443 288.392C167.129 292.438 143.139 289.519 121.476 280C121.308 279.883 121.131 279.781 120.945 279.695C120.777 279.624 120.603 279.566 120.425 279.523C107.242 273.537 95.2496 265.219 85.025 254.968C84.7035 254.646 84.3216 254.39 83.9012 254.216C83.4808 254.042 83.0301 253.952 82.575 253.952C82.1199 253.952 81.6692 254.042 81.2488 254.216C80.8285 254.39 80.4465 254.646 80.125 254.968L58.062 277.042C31.2636 249.12 15.9267 212.154 15.088 173.462H42.981C43.2992 186.638 45.6745 199.683 50.021 212.126L37.026 217.09C36.5994 217.251 36.2088 217.494 35.8766 217.807C35.5443 218.119 35.2771 218.494 35.09 218.909C34.903 219.325 34.8 219.774 34.7868 220.229C34.7737 220.685 34.8507 221.139 35.0134 221.565C35.1761 221.991 35.4213 222.38 35.735 222.711C36.0486 223.042 36.4245 223.308 36.8411 223.493C37.2577 223.678 37.7068 223.779 38.1626 223.79C38.6183 223.801 39.0718 223.723 39.497 223.558L52.51 218.586C56.9836 229.369 62.9225 239.483 70.159 248.644C70.7274 249.365 71.5588 249.83 72.4704 249.938C73.382 250.046 74.2991 249.787 75.02 249.219C75.7409 248.651 76.2064 247.819 76.3142 246.908C76.4221 245.996 76.1634 245.079 75.595 244.358C68.1965 235.003 62.2352 224.597 57.908 213.483C57.8719 213.278 57.8173 213.078 57.745 212.883C57.6801 212.727 57.6039 212.575 57.517 212.43C49.197 190.273 47.5975 166.154 52.9188 143.093C58.2401 120.031 70.2457 99.0513 87.4328 82.7799C104.62 66.5085 126.225 55.6683 149.543 51.6163C172.861 47.5643 196.856 50.4806 218.525 60C218.832 60.2248 219.182 60.3835 219.554 60.466C232.744 66.4527 244.742 74.7749 254.971 85.031C255.292 85.3524 255.674 85.6074 256.094 85.7814C256.514 85.9553 256.964 86.0449 257.418 86.0449C257.873 86.0449 258.323 85.9553 258.743 85.7814C259.163 85.6074 259.545 85.3524 259.866 85.031L281.937 62.96C308.736 90.8812 324.073 127.848 324.912 166.54L297.02 166.538ZM82.62 262.279C92.1751 271.357 103.085 278.893 114.958 284.616L109.275 297.324C109.089 297.739 108.987 298.187 108.975 298.641C108.962 299.096 109.039 299.548 109.201 299.973C109.363 300.398 109.608 300.786 109.92 301.116C110.233 301.447 110.607 301.712 111.022 301.898C111.437 302.084 111.885 302.186 112.339 302.198C112.794 302.211 113.246 302.134 113.671 301.972C114.096 301.81 114.484 301.565 114.814 301.253C115.145 300.94 115.41 300.566 115.596 300.151L121.275 287.451C135.648 293.4 150.993 296.651 166.543 297.042V324.912C127.849 324.075 90.8806 308.738 62.958 281.938L82.62 262.279ZM58.012 62.907L77.764 82.66C68.702 92.218 61.1739 103.121 55.447 114.982L42.676 109.271C41.8408 108.914 40.8988 108.899 40.0531 109.231C39.2073 109.562 38.5256 110.212 38.1548 111.041C37.7841 111.87 37.754 112.812 38.0711 113.663C38.3882 114.514 39.0271 115.207 39.85 115.591L52.617 121.301C46.6398 135.657 43.3655 150.993 42.959 166.538H15.086C15.8401 127.823 31.169 90.8159 58.012 62.907V62.907ZM257.383 77.721C247.828 68.6424 236.919 61.1065 225.046 55.384L230.729 42.676C231.104 41.8378 231.13 40.8849 230.803 40.0272C230.475 39.1694 229.82 38.4769 228.982 38.102C228.144 37.7271 227.191 37.7005 226.333 38.0282C225.475 38.3558 224.783 39.0108 224.408 39.849L218.729 52.549C204.356 46.6011 189.012 43.3502 173.462 42.959V15.088C212.154 15.9264 249.121 31.2634 277.042 58.062L257.383 77.721Z" fill="black"/>
    <path d="M115.792 113C115.888 113 115.936 113.096 115.936 113.288C115.936 113.48 115.888 113.576 115.792 113.576C114.448 113.576 113.472 113.944 112.864 114.68C112.256 115.416 111.952 116.616 111.952 118.28V143.576C111.952 143.64 111.872 143.688 111.712 143.72C111.552 143.752 111.44 143.736 111.376 143.672L89.296 116.936L88.864 116.456V137.768C88.864 139.432 89.152 140.632 89.728 141.368C90.336 142.072 91.296 142.424 92.608 142.424C92.704 142.424 92.752 142.52 92.752 142.712C92.752 142.904 92.704 143 92.608 143C91.808 143 91.2 142.984 90.784 142.952L88.384 142.904L85.936 142.952C85.488 142.984 84.832 143 83.968 143C83.904 143 83.872 142.904 83.872 142.712C83.872 142.52 83.904 142.424 83.968 142.424C85.344 142.424 86.32 142.072 86.896 141.368C87.472 140.632 87.76 139.432 87.76 137.768V115.304C86.512 114.152 85.248 113.576 83.968 113.576C83.872 113.576 83.824 113.48 83.824 113.288C83.824 113.096 83.872 113 83.968 113L85.744 113.048C86.128 113.08 86.656 113.096 87.328 113.096C88.032 113.096 88.608 113.08 89.056 113.048C89.504 113.016 89.856 113 90.112 113C90.368 113 90.544 113.064 90.64 113.192C90.768 113.288 90.96 113.528 91.216 113.912C91.6 114.488 91.984 115.016 92.368 115.496L110.848 138.2V118.28C110.848 116.616 110.56 115.416 109.984 114.68C109.44 113.944 108.512 113.576 107.2 113.576C107.136 113.576 107.104 113.48 107.104 113.288C107.104 113.096 107.136 113 107.2 113L109.072 113.048C110.032 113.112 110.816 113.144 111.424 113.144C112 113.144 112.8 113.112 113.824 113.048L115.792 113Z" fill="#151414"/>
    <path d="M245.376 133.264C245.504 133.264 245.584 133.344 245.616 133.504C245.68 133.632 245.648 133.728 245.52 133.792L239.904 136.432L239.712 136.48C239.392 136.48 239.088 136.112 238.8 135.376C238.512 134.64 238.368 133.68 238.368 132.496V132.304C237.12 133.712 235.872 134.752 234.624 135.424C233.376 136.064 232.08 136.384 230.736 136.384C229.136 136.384 227.888 135.888 226.992 134.896C226.096 133.872 225.648 132.4 225.648 130.48V123.136C225.648 121.888 225.536 120.992 225.312 120.448C225.088 119.872 224.72 119.584 224.208 119.584C223.76 119.584 223.216 119.744 222.576 120.064H222.528C222.4 120.064 222.304 119.984 222.24 119.824C222.176 119.632 222.208 119.52 222.336 119.488L227.664 117.088L227.856 117.04C227.952 117.04 228.048 117.088 228.144 117.184C228.272 117.248 228.336 117.328 228.336 117.424V128.896C228.336 132.608 229.68 134.464 232.368 134.464C233.392 134.464 234.432 134.208 235.488 133.696C236.544 133.152 237.504 132.416 238.368 131.488V123.136C238.368 121.856 238.256 120.944 238.032 120.4C237.84 119.856 237.472 119.584 236.928 119.584C236.48 119.584 235.936 119.744 235.296 120.064H235.248C235.12 120.064 235.024 119.984 234.96 119.824C234.928 119.632 234.976 119.52 235.104 119.488L240.432 117.088L240.576 117.04C240.672 117.04 240.768 117.088 240.864 117.184C240.992 117.248 241.056 117.328 241.056 117.424V130.864C241.056 131.952 241.184 132.736 241.44 133.216C241.696 133.696 242.128 133.936 242.736 133.936C243.28 133.936 244.128 133.712 245.28 133.264H245.376Z" fill="#151414"/>
    <path d="M184.616 193.424C184.744 193.424 184.808 193.52 184.808 193.712C184.808 193.904 184.744 194 184.616 194C183.88 194 183.288 193.984 182.84 193.952L180.248 193.904L177.656 193.952C177.208 193.984 176.616 194 175.88 194C175.784 194 175.736 193.904 175.736 193.712C175.736 193.52 175.784 193.424 175.88 193.424C176.744 193.424 177.384 193.344 177.8 193.184C178.216 192.992 178.504 192.672 178.664 192.224C178.824 191.744 178.904 191.04 178.904 190.112V182.48C178.904 180.592 178.568 179.2 177.896 178.304C177.224 177.376 176.184 176.912 174.776 176.912C173.816 176.912 172.84 177.184 171.848 177.728C170.888 178.24 169.992 178.976 169.16 179.936C169.192 180.096 169.208 180.352 169.208 180.704V190.112C169.208 191.072 169.288 191.776 169.448 192.224C169.608 192.672 169.896 192.992 170.312 193.184C170.728 193.344 171.368 193.424 172.232 193.424C172.328 193.424 172.376 193.52 172.376 193.712C172.376 193.904 172.328 194 172.232 194C171.496 194 170.904 193.984 170.456 193.952L167.864 193.904L165.224 193.952C164.808 193.984 164.232 194 163.496 194C163.4 194 163.352 193.904 163.352 193.712C163.352 193.52 163.4 193.424 163.496 193.424C164.36 193.424 165 193.344 165.416 193.184C165.832 192.992 166.104 192.672 166.232 192.224C166.392 191.776 166.472 191.072 166.472 190.112V182.48C166.472 180.592 166.136 179.2 165.464 178.304C164.792 177.376 163.768 176.912 162.392 176.912C161.432 176.912 160.472 177.168 159.512 177.68C158.552 178.192 157.672 178.912 156.872 179.84V190.112C156.872 191.072 156.936 191.776 157.064 192.224C157.224 192.672 157.512 192.992 157.928 193.184C158.344 193.344 158.984 193.424 159.848 193.424C159.944 193.424 159.992 193.52 159.992 193.712C159.992 193.904 159.944 194 159.848 194C159.112 194 158.536 193.984 158.12 193.952L155.528 193.904L152.888 193.952C152.472 193.984 151.896 194 151.16 194C151.064 194 151.016 193.904 151.016 193.712C151.016 193.52 151.064 193.424 151.16 193.424C152.024 193.424 152.664 193.344 153.08 193.184C153.496 192.992 153.768 192.672 153.896 192.224C154.056 191.776 154.136 191.072 154.136 190.112V180.608C154.136 179.52 154.008 178.736 153.752 178.256C153.496 177.776 153.064 177.536 152.456 177.536C151.944 177.536 151.08 177.776 149.864 178.256H149.768C149.64 178.256 149.544 178.192 149.48 178.064C149.448 177.904 149.496 177.792 149.624 177.728L155.192 175.088L155.48 175.04C155.768 175.04 156.072 175.408 156.392 176.144C156.712 176.88 156.872 177.824 156.872 178.976V179.024C158.024 177.616 159.176 176.592 160.328 175.952C161.48 175.312 162.68 174.992 163.928 174.992C165.368 174.992 166.536 175.344 167.432 176.048C168.328 176.752 168.888 177.808 169.112 179.216C170.296 177.776 171.48 176.72 172.664 176.048C173.848 175.344 175.08 174.992 176.36 174.992C178.056 174.992 179.352 175.488 180.248 176.48C181.176 177.44 181.64 178.88 181.64 180.8V190.112C181.64 191.072 181.704 191.776 181.832 192.224C181.992 192.672 182.28 192.992 182.696 193.184C183.112 193.344 183.752 193.424 184.616 193.424ZM190.361 194.528C189.721 194.528 189.209 194.336 188.825 193.952C188.441 193.568 188.249 193.056 188.249 192.416C188.249 191.808 188.441 191.328 188.825 190.976C189.209 190.624 189.721 190.448 190.361 190.448C191.033 190.448 191.545 190.624 191.897 190.976C192.281 191.328 192.473 191.808 192.473 192.416C192.473 193.056 192.281 193.568 191.897 193.952C191.545 194.336 191.033 194.528 190.361 194.528Z" fill="#151414"/>
    <path d="M103.976 212.848C105.352 212.848 106.632 213.184 107.816 213.856C109 214.528 109.944 215.536 110.648 216.88C111.352 218.192 111.704 219.808 111.704 221.728C111.704 224.032 111.192 226.016 110.168 227.68C109.176 229.312 107.864 230.544 106.232 231.376C104.632 232.208 102.936 232.624 101.144 232.624C98.68 232.624 96.504 231.92 94.616 230.512L90.968 232.24H90.872C90.744 232.24 90.664 232.176 90.632 232.048C90.6 231.92 90.632 231.824 90.728 231.76C91.752 231.056 92.472 230.4 92.888 229.792C93.304 229.152 93.512 228.24 93.512 227.056V203.344C93.512 202.192 93.384 201.36 93.128 200.848C92.904 200.336 92.504 200.08 91.928 200.08C91.48 200.08 90.76 200.288 89.768 200.704H89.672C89.576 200.704 89.496 200.624 89.432 200.464C89.4 200.304 89.432 200.208 89.528 200.176L95.528 197.248L95.768 197.2C95.832 197.2 95.912 197.248 96.008 197.344C96.136 197.408 96.2 197.488 96.2 197.584V217.024C97.416 215.744 98.632 214.736 99.848 214C101.064 213.232 102.44 212.848 103.976 212.848ZM102.632 231.712C104.488 231.712 105.928 230.992 106.952 229.552C108.008 228.112 108.536 226.048 108.536 223.36C108.536 220.48 107.976 218.272 106.856 216.736C105.736 215.2 104.248 214.432 102.392 214.432C101.304 214.432 100.264 214.736 99.272 215.344C98.28 215.92 97.256 216.736 96.2 217.792V225.664C96.2 227.072 96.536 228.224 97.208 229.12C97.912 230.016 98.76 230.672 99.752 231.088C100.744 231.504 101.704 231.712 102.632 231.712Z" fill="#151414"/>
    <path d="M262.688 198.472C262.784 198.472 262.832 198.568 262.832 198.76C262.832 198.952 262.784 199.048 262.688 199.048C261.888 199.048 261.2 199.336 260.624 199.912C260.048 200.488 259.504 201.432 258.992 202.744L253.136 218.344C251.952 221.448 250.832 223.864 249.776 225.592C248.752 227.352 247.68 228.6 246.56 229.336C245.472 230.104 244.208 230.488 242.768 230.488C242.064 230.488 241.488 230.328 241.04 230.008C240.56 229.688 240.32 229.224 240.32 228.616C240.32 228.168 240.464 227.816 240.752 227.56C241.04 227.304 241.392 227.176 241.808 227.176C242.224 227.176 242.576 227.224 242.864 227.32C243.152 227.416 243.456 227.576 243.776 227.8C243.84 227.832 244.016 227.928 244.304 228.088C244.624 228.248 245.008 228.328 245.456 228.328C246.224 228.328 246.944 227.992 247.616 227.32C248.32 226.648 249.056 225.512 249.824 223.912C250.624 222.344 251.552 220.168 252.608 217.384L245.312 202.456C244.576 201.048 244.016 200.136 243.632 199.72C243.248 199.272 242.752 199.048 242.144 199.048C242.08 199.048 242.048 198.952 242.048 198.76C242.048 198.568 242.08 198.472 242.144 198.472L243.776 198.52C244.16 198.552 244.688 198.568 245.36 198.568L248.432 198.52C248.88 198.488 249.504 198.472 250.304 198.472C250.368 198.472 250.4 198.568 250.4 198.76C250.4 198.952 250.368 199.048 250.304 199.048C248.448 199.048 247.52 199.416 247.52 200.152C247.52 200.344 247.6 200.6 247.76 200.92L254.096 213.928L257.936 202.888C258.192 202.12 258.32 201.512 258.32 201.064C258.32 200.328 258.032 199.816 257.456 199.528C256.88 199.208 255.936 199.048 254.624 199.048C254.56 199.048 254.528 198.952 254.528 198.76C254.528 198.568 254.56 198.472 254.624 198.472C255.488 198.472 256.144 198.488 256.592 198.52L259.472 198.568L261.2 198.52C261.52 198.488 262.016 198.472 262.688 198.472Z" fill="#151414"/>
    </svg>
